<svg id="Layer_1" data-name="Layer 1" xmlns="http://www.w3.org/2000/svg" xmlns:xlink="http://www.w3.org/1999/xlink" viewBox="0 0 11.72 15.82"><defs><style>.cls-1,.cls-2,.cls-3{fill:#8b31da;stroke:#ff19b3;stroke-miterlimit:10;}.cls-1{stroke-width:0.02px;}.cls-2{stroke-width:0.02px;}.cls-3{stroke-width:0.02px;}.cls-4{fill:url(#linear-gradient);}</style><linearGradient id="linear-gradient" x1="5.85" y1="-0.65" x2="5.85" y2="19.7" gradientUnits="userSpaceOnUse"><stop offset="0" stop-color="#dcbeff"/><stop offset="1" stop-color="#e500ac"/></linearGradient></defs><polygon class="cls-1" points="5.89 15.81 0.08 10.15 11.7 10.15 5.89 15.81"/><path class="cls-2" d="M2.16,5.16V8.23H13.77V5.16ZM4.9,7.6A.35.35,0,0,1,4.56,8H2.74a.35.35,0,0,1-.35-.35V5.78a.35.35,0,0,1,.35-.34H4.56a.34.34,0,0,1,.34.34Zm2.88,0A.35.35,0,0,1,7.44,8H5.62a.35.35,0,0,1-.35-.35V5.78a.35.35,0,0,1,.35-.34H7.44a.34.34,0,0,1,.34.34Zm2.94-.45a.33.33,0,0,1-.36.28H8.5a.33.33,0,0,1-.35-.28V5.71a.32.32,0,0,1,.35-.27h1.86c.2,0,.36.12.36.27Zm2.82-.37A1.18,1.18,0,0,1,12.37,8h-1A.35.35,0,0,1,11,7.6V5.78a.34.34,0,0,1,.34-.34h1.82a.35.35,0,0,1,.35.34Z" transform="translate(-2.15 -0.09)"/><path class="cls-3" d="M2.21.1V3.17H13.83V.1ZM5,2.54a.35.35,0,0,1-.35.35H2.8a.35.35,0,0,1-.35-.35V1.69A1.31,1.31,0,0,1,3.76.38h.85A.35.35,0,0,1,5,.72Zm2.82.15c0,.11-.15.2-.34.2H5.67c-.19,0-.34-.09-.34-.2v-1c0-.1.15-.19.34-.19H7.44c.19,0,.34.09.34.19Zm2.94-.15a.35.35,0,0,1-.35.35H8.55a.35.35,0,0,1-.34-.35V.72A.34.34,0,0,1,8.55.38h1.82a.35.35,0,0,1,.35.34Zm2.87,0a.35.35,0,0,1-.34.35H11.43a.35.35,0,0,1-.35-.35V.72a.35.35,0,0,1,.35-.34h1.82a.34.34,0,0,1,.34.34Z" transform="translate(-2.15 -0.09)"/><polygon class="cls-4" points="5.89 15.81 0.08 10.15 11.7 10.15 5.89 15.81"/><path class="cls-4" d="M2.16,5.16V8.23H13.77V5.16ZM4.9,7.6A.35.35,0,0,1,4.56,8H2.74a.35.35,0,0,1-.35-.35V5.78a.35.35,0,0,1,.35-.34H4.56a.34.34,0,0,1,.34.34Zm2.88,0A.35.35,0,0,1,7.44,8H5.62a.35.35,0,0,1-.35-.35V5.78a.35.35,0,0,1,.35-.34H7.44a.34.34,0,0,1,.34.34Zm2.94-.45a.33.33,0,0,1-.36.28H8.5a.33.33,0,0,1-.35-.28V5.71a.32.32,0,0,1,.35-.27h1.86c.2,0,.36.12.36.27Zm2.82-.37A1.18,1.18,0,0,1,12.37,8h-1A.35.35,0,0,1,11,7.6V5.78a.34.34,0,0,1,.34-.34h1.82a.35.35,0,0,1,.35.34Z" transform="translate(-2.15 -0.09)"/><path class="cls-4" d="M2.21.1V3.17H13.83V.1ZM5,2.54a.35.35,0,0,1-.35.35H2.8a.35.35,0,0,1-.35-.35V1.69A1.31,1.31,0,0,1,3.76.38h.85A.35.35,0,0,1,5,.72Zm2.82.15c0,.11-.15.2-.34.2H5.67c-.19,0-.34-.09-.34-.2v-1c0-.1.15-.19.34-.19H7.44c.19,0,.34.09.34.19Zm2.94-.15a.35.35,0,0,1-.35.35H8.55a.35.35,0,0,1-.34-.35V.72A.34.34,0,0,1,8.55.38h1.82a.35.35,0,0,1,.35.34Zm2.87,0a.35.35,0,0,1-.34.35H11.43a.35.35,0,0,1-.35-.35V.72a.35.35,0,0,1,.35-.34h1.82a.34.34,0,0,1,.34.34Z" transform="translate(-2.15 -0.09)"/></svg>